#!OML:ASF I:\Random Stuff\random\construction\7_22_03\Session 2\subj1.ASF
:FULLY-SPECIFIED
:DEGREES
605
root -8.37591 17.4878 0.00864779 -129.687 84.3517 -154.762
lowerback 22.4946 3.43115 -3.70756
upperback 6.85558 3.9981 -2.21499
thorax -5.08202 2.16401 -1.34855
lowerneck -23.8567 10.1543 1.16063
upperneck 35.3225 23.7508 -14.4358
head 20.383 7.82954 -1.04964
rclavicle 3.57812e-015 6.61953e-014
rhumerus 0.566283 47.9809 -77.4008
rradius 122.495
rwrist -27.8043
rhand -27.7549 39.1853
rfingers 7.12502
rthumb -1.14918 9.20865
lclavicle 3.57812e-015 6.61953e-014
lhumerus 20.9295 0.780729 59.2372
lradius 28.2379
lwrist 7.23649
lhand -34.9726 66.3773
lfingers 7.12502
lthumb -8.11835 -96.2014
rfemur -24.9091 -2.29989 10.1528
rtibia 16.2032
rfoot -7.2094 -14.2842
rtoes -31.8242
lfemur -45.8413 2.46028 -8.78809
ltibia 30.8797
lfoot -8.71455 2.24216
ltoes -34.3424
606
root -8.36557 17.486 0.00433512 -130.927 84.3912 -155.865
lowerback 22.5887 4.21833 -2.01692
upperback 6.55358 5.28489 -3.43461
thorax -5.20113 2.79573 -3.97852
lowerneck -23.5436 9.02774 3.54906
upperneck 36.4604 20.8274 -13.5573
head 20.7332 7.13643 -1.8727
rclavicle -6.54002e-014 -4.16454e-014
rhumerus -2.23251 43.6443 -80.3586
rradius 122.638
rwrist -27.7627
rhand -27.8793 39.0086
rfingers 7.12502
rthumb -1.26939 9.03268
lclavicle -6.54002e-014 -4.16454e-014
lhumerus 22.9573 -3.75221 58.1802
lradius 28.0274
lwrist 7.74959
lhand -34.7794 66.2563
lfingers 7.12502
lthumb -7.93183 -96.0874
rfemur -24.8067 -2.3681 10.0335
rtibia 16.4195
rfoot -7.33647 -14.2996
rtoes -31.9184
lfemur -45.6823 2.48737 -8.9825
ltibia 30.9172
lfoot -8.75825 2.09147
ltoes -34.4066
607
root -8.35465 17.485 0.00127822 -131.624 84.4992 -156.384
lowerback 22.4233 4.06702 -2.1682
upperback 6.5632 5.06752 -3.36538
thorax -5.13672 2.69028 -3.74632
lowerneck -23.5761 9.03821 3.45801
upperneck 36.5532 20.8473 -13.4401
head 20.7638 7.13546 -1.79843
rclavicle -4.99943e-014 3.77691e-015
rhumerus -2.19307 43.7017 -80.5188
rradius 122.668
rwrist -28.498
rhand -27.9499 38.7806
rfingers 7.12502
rthumb -1.33755 8.80508
lclavicle -4.99943e-014 3.77691e-015
lhumerus 22.5882 -3.19593 58.2818
lradius 27.7396
lwrist 7.45545
lhand -34.7308 66.126
lfingers 7.12502
lthumb -7.88495 -95.9589
rfemur -24.6678 -2.38265 9.91104
rtibia 16.5903
rfoot -7.47839 -14.2554
rtoes -31.8501
lfemur -45.434 2.54616 -9.15447
ltibia 30.9275
lfoot -8.82552 2.0092
ltoes -34.4515
608
root -8.34543 17.4833 -0.0028985 -132.004 84.5973 -156.588
lowerback 22.2953 3.96668 -2.25351
upperback 6.5314 4.92283 -3.31926
thorax -5.12416 2.61816 -3.60164
lowerneck -23.5903 8.99143 3.51715
upperneck 36.7363 20.7725 -13.3589
head 20.868 7.11544 -1.79589
rclavicle -1.21259e-014 -4.86029e-014
rhumerus -2.34335 43.5692 -80.7657
rradius 122.612
rwrist -29.1479
rhand -27.8408 38.9662
rfingers 7.12502
rthumb -1.23211 8.98997
lclavicle -1.21259e-014 -4.86029e-014
lhumerus 22.3232 -2.89577 58.3263
lradius 27.4575
lwrist 7.33984
lhand -34.6841 66.0886
lfingers 7.12502
lthumb -7.83992 -95.9232
rfemur -24.5308 -2.41873 9.82563
rtibia 16.7359
rfoot -7.57559 -14.1708
rtoes -31.6879
lfemur -45.1965 2.54909 -9.25748
ltibia 30.9377
lfoot -8.89429 2.0083
ltoes -34.4834
609
root -8.33374 17.4816 -0.00301929 -133.06 84.5651 -157.488
lowerback 22.1305 3.91143 -2.16355
upperback 6.4644 4.86869 -3.34926
thorax -5.10605 2.59004 -3.66041
lowerneck -23.5406 8.84538 3.73825
upperneck 37.0041 20.4549 -13.1977
head 20.9766 7.04157 -1.85388
rclavicle 1.31198e-014 3.07122e-014
rhumerus -2.73989 43.1212 -81.2572
rradius 122.501
rwrist -29.6294
rhand -27.7594 39.3738
rfingers 7.12502
rthumb -1.15353 9.39718
lclavicle 1.31198e-014 3.07122e-014
lhumerus 22.247 -2.96677 58.3801
lradius 27.2062
lwrist 7.20891
lhand -34.6467 66.1196
lfingers 7.12502
lthumb -7.80375 -95.9556
rfemur -24.329 -2.37408 9.74586
rtibia 16.8393
rfoot -7.62767 -14.2847
rtoes -31.436
lfemur -45.0117 2.55488 -9.36462
ltibia 30.9303
lfoot -8.94364 1.8708
ltoes -34.6853
610
root -8.32299 17.4788 -0.00369648 -133.887 84.4992 -158.162
lowerback 21.8454 3.63013 -2.56761
upperback 6.55547 4.4561 -3.00852
thorax -4.93741 2.3884 -2.93125
lowerneck -23.7388 9.02323 3.24096
upperneck 36.9315 20.9256 -13.1904
head 20.9825 7.13019 -1.62735
rclavicle 6.99722e-014 -1.98785e-015
rhumerus -2.31983 43.8579 -80.9724
rradius 122.363
rwrist -30.193
rhand -27.998 39.4864
rfingers 7.12502
rthumb -1.38397 9.51112
lclavicle 6.99722e-014 -1.98785e-015
lhumerus 21.7298 -1.52559 58.9059
lradius 26.8685
lwrist 6.6875
lhand -34.6608 65.9712
lfingers 7.12502
lthumb -7.81737 -95.8067
rfemur -24.132 -2.34918 9.71391
rtibia 16.9202
rfoot -7.64071 -14.3919
rtoes -31.6095
lfemur -44.8317 2.5383 -9.42258
ltibia 30.9063
lfoot -8.96172 1.75696
ltoes -34.7934
611
root -8.31259 17.4779 -0.00451568 -134.589 84.4175 -158.743
lowerback 21.6157 3.48734 -2.5668
upperback 6.54504 4.2824 -2.95476
thorax -4.84108 2.30296 -2.81268
lowerneck -23.8916 9.02426 3.12643
upperneck 37.1018 20.8604 -12.8804
head 21.0321 7.10415 -1.47541
rclavicle -3.35946e-014 1.53064e-014
rhumerus -2.47115 43.8484 -81.2097
rradius 122.331
rwrist -30.5211
rhand -28.4023 39.4716
rfingers 7.12502
rthumb -1.7745 9.49922
lclavicle -3.35946e-014 1.53064e-014
lhumerus 21.5589 -0.98749 59.1042
lradius 26.5312
lwrist 6.37564
lhand -34.6575 65.689
lfingers 7.12502
lthumb -7.81424 -95.5246
rfemur -23.9697 -2.41944 9.73216
rtibia 17.0035
rfoot -7.67473 -14.4318
rtoes -31.8355
lfemur -44.6628 2.46531 -9.43027
ltibia 30.8583
lfoot -8.95951 1.71882
ltoes -34.6965
612
root -8.30141 17.4787 -0.00303789 -135.103 84.3757 -159.108
lowerback 21.4472 3.44759 -2.50148
upperback 6.48479 4.24272 -3.00104
thorax -4.81355 2.28235 -2.87971
lowerneck -24.0451 8.92338 3.14505
upperneck 37.4722 20.5616 -12.4016
head 21.1618 7.02417 -1.33261
rclavicle 3.598e-014 -1.19271e-015
rhumerus -2.91473 43.4715 -81.603
rradius 122.389
rwrist -30.8289
rhand -28.5597 39.4694
rfingers 7.12502
rthumb -1.92647 9.49834
lclavicle 3.598e-014 -1.19271e-015
lhumerus 21.4669 -0.835369 59.2041
lradius 26.2499
lwrist 6.12379
lhand -34.6514 65.4004
lfingers 7.12502
lthumb -7.80833 -95.2362
rfemur -23.7787 -2.43396 9.73849
rtibia 17.0614
rfoot -7.72751 -14.4794
rtoes -31.6794
lfemur -44.4423 2.46685 -9.46437
ltibia 30.8064
lfoot -8.9828 1.65022
ltoes -34.6493
613
root -8.29098 17.4788 0.0016808 -135.562 84.3386 -159.417
lowerback 21.3052 3.45317 -2.47056
upperback 6.4127 4.25184 -3.05539
thorax -4.81246 2.28513 -2.95093
lowerneck -24.0944 8.80641 3.28068
upperneck 37.7253 20.2314 -12.0951
head 21.2424 6.94452 -1.30143
rclavicle 5.88403e-014 -1.76918e-014
rhumerus -3.38537 42.9558 -81.9888
rradius 122.41
rwrist -31.2464
rhand -28.3747 39.6016
rfingers 7.12502
rthumb -1.7478 9.62897
lclavicle 5.88403e-014 -1.76918e-014
lhumerus 21.4194 -0.7321 59.3701
lradius 26.0085
lwrist 5.72972
lhand -34.6291 65.1337
lfingers 7.12502
lthumb -7.78679 -94.9703
rfemur -23.5631 -2.37037 9.73951
rtibia 17.0611
rfoot -7.72916 -14.591
rtoes -31.5921
lfemur -44.2287 2.49246 -9.493
ltibia 30.7589
lfoot -9.0121 1.52933
ltoes -34.5907
